<svg id="visual" viewBox="0 0 900 600" width="900" height="600" xmlns="http://www.w3.org/2000/svg" xmlns:xlink="http://www.w3.org/1999/xlink" version="1.1"><rect x="0" y="0" width="900" height="600" fill="#1a102f"></rect><path d="M0 449L18.8 463.2C37.7 477.3 75.3 505.7 112.8 526.8C150.3 548 187.7 562 225.2 559.5C262.7 557 300.3 538 337.8 522.2C375.3 506.3 412.7 493.7 450.2 485.5C487.7 477.3 525.3 473.7 562.8 486.8C600.3 500 637.7 530 675.2 541C712.7 552 750.3 544 787.8 530C825.3 516 862.7 496 881.3 486L900 476L900 601L881.3 601C862.7 601 825.3 601 787.8 601C750.3 601 712.7 601 675.2 601C637.7 601 600.3 601 562.8 601C525.3 601 487.7 601 450.2 601C412.7 601 375.3 601 337.8 601C300.3 601 262.7 601 225.2 601C187.7 601 150.3 601 112.8 601C75.3 601 37.7 601 18.8 601L0 601Z" fill="#FFFFFF" stroke-linecap="round" stroke-linejoin="miter"></path></svg>